<?xml version="1.0" encoding="UTF-8" standalone="no"?><!DOCTYPE svg PUBLIC "-//W3C//DTD SVG 1.1//EN" "http://www.w3.org/Graphics/SVG/1.1/DTD/svg11.dtd"><svg width="100%" height="100%" viewBox="0 0 2845 2845" version="1.1" xmlns="http://www.w3.org/2000/svg" xmlns:xlink="http://www.w3.org/1999/xlink" xml:space="preserve" xmlns:serif="http://www.serif.com/" style="fill-rule:evenodd;clip-rule:evenodd;stroke-linejoin:round;stroke-miterlimit:2;"><g><g><path d="M1836.22,1877.25c-11.632,0 -23.279,-4.443 -32.166,-13.33l-823.537,-823.518c-17.774,-17.759 -17.774,-46.573 -0,-64.332c17.774,-17.774 46.558,-17.774 64.332,-0l823.538,823.518c17.774,17.759 17.774,46.573 -0,64.332c-8.888,8.887 -20.52,13.33 -32.167,13.33Z" style="fill:#4c4372;fill-rule:nonzero;"/></g><g><path d="M1267.48,1961.55l-378.594,-378.592c-19.943,-19.943 -19.943,-52.276 0,-72.219l648.39,-648.386c19.943,-19.943 52.276,-19.943 72.219,-0l378.594,378.592c19.942,19.942 19.942,52.275 -0,72.218l-648.39,648.387c-19.943,19.942 -52.276,19.942 -72.219,-0Z" style="fill:#d4e7f8;fill-rule:nonzero;"/></g><g><path d="M1988.09,1240.95l-98.88,-98.879c19.943,19.942 19.943,52.275 -0,72.218l-648.39,648.386c-19.943,19.943 -52.276,19.943 -72.219,0l98.88,98.88c19.943,19.942 52.276,19.942 72.219,-0l648.39,-648.387c19.942,-19.943 19.942,-52.276 -0,-72.218Z" style="fill:#a0d1f2;fill-rule:nonzero;"/></g><g><path d="M1685.27,1378.22l-213.078,-213.077l-302.566,302.565l213.078,213.077l302.566,-302.565Z" style="fill:#7babf3;"/></g><g><path d="M1187.89,2113.33l-450.809,-450.807l-177.004,177.003l450.809,450.806l177.004,-177.002Z" style="fill:#fd919f;"/></g><g><path d="M2482.2,1050.99c-188.539,188.537 -494.201,188.537 -682.74,-0c-188.539,-188.538 -188.539,-494.199 -0,-682.737l682.74,682.737Z" style="fill:#fd919f;fill-rule:nonzero;"/></g><g><path d="M2366.24,935.03c-168.763,168.762 -431.31,186.324 -619.758,52.973c15.621,22.081 33.198,43.207 52.974,62.983c188.539,188.537 494.201,188.537 682.74,-0l-115.956,-115.956Z" style="fill:#e0667d;fill-rule:nonzero;"/></g><g><ellipse cx="2310.99" cy="533.462" rx="109.132" ry="109.131" style="fill:#fd919f;"/></g><g><path d="M1088.98,2014.48l-177.003,177.002l98.882,98.882l177.004,-177.003l-98.883,-98.881Z" style="fill:#e0667d;"/></g><g><path d="M1229.54,1923.58l-302.695,-302.694l-115.697,115.697l302.695,302.693l115.697,-115.696Z" style="fill:#7babf3;"/></g><g><path d="M45.509,1024.73l475.356,475.353l979.203,-979.198l-475.355,-475.353l-979.204,979.198Z" style="fill:#a0d1f2;"/></g><g><path d="M1344.39,2323.63l475.355,475.353l979.204,-979.198l-475.356,-475.353l-979.203,979.198Z" style="fill:#a0d1f2;"/></g><g><path d="M1709.49,2688.74l110.249,110.248l979.203,-979.198l-110.249,-110.249l-979.203,979.199Z" style="fill:#7babf3;"/></g><g><path d="M410.623,1389.84l110.25,110.249l979.203,-979.198l-110.249,-110.249l-979.204,979.198Z" style="fill:#7babf3;"/></g><g><path d="M2140.84,1237.88c-141.116,0 -273.77,-54.944 -373.544,-154.733c-205.979,-205.963 -205.979,-541.106 -0,-747.069c17.774,-17.774 46.558,-17.774 64.332,0l682.74,682.736c17.774,17.759 17.774,46.574 0,64.333c-99.774,99.774 -232.428,154.733 -373.528,154.733Zm-339.71,-803.636c-139.281,171.568 -129.12,424.923 30.513,584.555c82.592,82.592 192.391,128.073 309.212,128.073c101.488,0 197.698,-34.35 275.377,-97.545l-615.102,-615.083Z" style="fill:#4c4372;fill-rule:nonzero;"/></g><g><path d="M1010.88,2335.87c-11.647,-0 -23.279,-4.444 -32.166,-13.331l-450.813,-450.81c-17.774,-17.759 -17.774,-46.573 0,-64.332l176.998,-176.997c17.061,-17.076 47.271,-17.076 64.332,0l450.828,450.826c8.538,8.538 13.331,20.109 13.331,32.166c-0,12.071 -4.793,23.643 -13.331,32.181l-177.013,176.997c-8.887,8.856 -20.519,13.3 -32.166,13.3Zm-386.465,-496.322l386.465,386.478l112.665,-112.665l-386.465,-386.478l-112.665,112.665Z" style="fill:#4c4372;fill-rule:nonzero;"/></g><g><path d="M1113.82,2084.8c-12.072,-0 -23.643,-4.793 -32.166,-13.331l-302.69,-302.688c-17.774,-17.759 -17.774,-46.574 -0,-64.332l115.698,-115.698c17.061,-17.077 47.271,-17.077 64.333,-0l302.69,302.703c17.774,17.759 17.774,46.574 -0,64.333l-115.699,115.697c-8.523,8.523 -20.094,13.316 -32.166,13.316Zm-238.358,-348.185l238.358,238.341l51.366,-51.351l-238.358,-238.356l-51.366,51.366Z" style="fill:#4c4372;fill-rule:nonzero;"/></g><g><path d="M1303.6,2022.02c-25.796,0 -50.046,-10.039 -68.29,-28.283l-378.594,-378.607c-18.244,-18.229 -28.284,-42.479 -28.284,-68.276c-0,-25.796 10.04,-50.046 28.284,-68.29l648.375,-648.371c18.229,-18.244 42.494,-28.284 68.29,-28.284c25.782,0 50.047,10.04 68.276,28.284l378.594,378.592c18.244,18.229 28.284,42.478 28.284,68.275c-0,25.796 -10.04,50.046 -28.284,68.29l-648.375,648.372c-18.244,18.244 -42.494,28.298 -68.276,28.298Zm269.766,-1129.12c-1.532,0 -2.851,0.546 -3.943,1.623l-648.375,648.386c-1.076,1.092 -1.622,2.412 -1.622,3.943c-0,1.532 0.546,2.852 1.622,3.928l378.594,378.607c2.154,2.139 5.718,2.154 7.902,0l648.374,-648.371c1.077,-1.092 1.623,-2.411 1.623,-3.943c0,-1.532 -0.546,-2.851 -1.623,-3.943l-378.594,-378.592c-1.092,-1.077 -2.411,-1.623 -3.943,-1.623l-0.015,-0.015Z" style="fill:#4c4372;fill-rule:nonzero;"/></g><g><path d="M520.862,1545.56c-11.647,0 -23.279,-4.443 -32.166,-13.33l-475.365,-475.363c-8.539,-8.538 -13.331,-20.095 -13.331,-32.166c0,-12.057 4.792,-23.643 13.331,-32.166l979.212,-979.208c17.774,-17.773 46.558,-17.773 64.332,0l475.366,475.364c8.538,8.538 13.331,20.094 13.331,32.166c-0,12.056 -4.793,23.643 -13.331,32.166l-979.212,979.207c-8.887,8.887 -20.535,13.33 -32.167,13.33Zm-411.033,-520.859l411.033,411.016l914.88,-914.875l-411.033,-411.016l-914.88,914.875Z" style="fill:#4c4372;fill-rule:nonzero;"/></g><g><path d="M283.172,1307.89c-11.647,0 -23.279,-4.443 -32.166,-13.33c-17.774,-17.759 -17.774,-46.573 -0,-64.332l979.212,-979.207c17.774,-17.774 46.559,-17.774 64.333,-0c17.774,17.758 17.774,46.573 -0,64.332l-979.213,979.207c-8.887,8.887 -20.534,13.33 -32.166,13.33Z" style="fill:#4c4372;fill-rule:nonzero;"/></g><g><path d="M1012.68,1053.73c-11.647,0 -23.279,-4.443 -32.166,-13.33l-475.366,-475.363c-17.774,-17.759 -17.774,-46.573 -0,-64.332c17.774,-17.774 46.558,-17.774 64.332,-0l475.366,475.363c17.774,17.759 17.774,46.573 0,64.332c-8.887,8.887 -20.519,13.33 -32.166,13.33Z" style="fill:#4c4372;fill-rule:nonzero;"/></g><g><path d="M1262.7,803.727c-11.647,-0 -23.279,-4.444 -32.166,-13.331l-475.366,-475.363c-17.774,-17.759 -17.774,-46.573 -0,-64.332c17.774,-17.774 46.558,-17.774 64.332,0l475.366,475.363c17.774,17.759 17.774,46.574 0,64.332c-8.887,8.887 -20.534,13.331 -32.166,13.331Z" style="fill:#4c4372;fill-rule:nonzero;"/></g><g><path d="M758.234,1308.19c-11.647,-0 -23.279,-4.444 -32.166,-13.331l-475.365,-475.363c-17.775,-17.759 -17.775,-46.573 -0,-64.332c17.774,-17.774 46.558,-17.774 64.332,-0l475.366,475.363c17.774,17.759 17.774,46.573 -0,64.332c-8.887,8.887 -20.519,13.331 -32.167,13.331Z" style="fill:#4c4372;fill-rule:nonzero;"/></g><g><path d="M1819.74,2844.44c-12.072,0 -23.643,-4.792 -32.166,-13.33l-475.35,-475.363c-17.775,-17.759 -17.775,-46.573 -0,-64.332l979.197,-979.207c17.061,-17.077 47.271,-17.077 64.332,-0l475.366,475.363c8.538,8.538 13.33,20.094 13.33,32.166c0,12.056 -4.792,23.643 -13.33,32.166l-979.212,979.207c-8.524,8.538 -20.095,13.33 -32.167,13.33Zm-411.003,-520.859l411.003,411.016l914.88,-914.875l-411.018,-411.016l-914.865,914.875Z" style="fill:#4c4372;fill-rule:nonzero;"/></g><g><path d="M1582.06,2606.77c-11.647,0 -23.279,-4.443 -32.166,-13.33c-17.774,-17.759 -17.774,-46.573 -0,-64.332l979.212,-979.207c17.774,-17.774 46.559,-17.774 64.333,-0c17.774,17.759 17.774,46.573 -0,64.332l-979.213,979.207c-8.887,8.887 -20.519,13.33 -32.166,13.33Z" style="fill:#4c4372;fill-rule:nonzero;"/></g><g><path d="M2311.59,2352.61c-11.647,-0 -23.279,-4.444 -32.166,-13.331l-475.366,-475.363c-17.774,-17.759 -17.774,-46.573 0,-64.332c17.774,-17.774 46.558,-17.774 64.333,-0l475.365,475.363c17.774,17.759 17.774,46.573 0,64.332c-8.887,8.887 -20.534,13.331 -32.166,13.331Z" style="fill:#4c4372;fill-rule:nonzero;"/></g><g><path d="M2561.58,2102.61c-11.647,-0 -23.279,-4.444 -32.167,-13.33l-475.365,-475.364c-17.774,-17.758 -17.774,-46.573 -0,-64.332c17.774,-17.774 46.558,-17.774 64.332,0l475.366,475.363c17.774,17.759 17.774,46.574 -0,64.333c-8.887,8.886 -20.519,13.33 -32.166,13.33Z" style="fill:#4c4372;fill-rule:nonzero;"/></g><g><path d="M2057.11,2607.07c-11.647,-0 -23.279,-4.444 -32.166,-13.331l-475.366,-475.363c-17.774,-17.759 -17.774,-46.573 0,-64.332c17.774,-17.774 46.559,-17.774 64.333,0l475.365,475.363c17.775,17.759 17.775,46.573 0,64.332c-8.871,8.887 -20.519,13.331 -32.166,13.331Z" style="fill:#4c4372;fill-rule:nonzero;"/></g><g><path d="M2311.01,688.09c-41.311,-0 -80.135,-16.091 -109.344,-45.3c-29.209,-29.193 -45.285,-68.032 -45.285,-109.328c0,-41.295 16.091,-80.134 45.285,-109.343c29.209,-29.209 68.033,-45.284 109.344,-45.284c41.296,-0 80.12,16.09 109.328,45.299c29.209,29.194 45.285,68.033 45.3,109.328c-0.015,41.311 -16.106,80.135 -45.3,109.344c-29.208,29.208 -68.048,45.284 -109.328,45.284Zm-0,-218.277c-17.001,-0 -32.985,6.627 -45.012,18.638c-12.026,12.026 -18.638,28.011 -18.638,44.996c-0,16.985 6.612,32.97 18.638,44.996c12.027,12.026 28.011,18.639 45.012,18.639c16.985,-0 32.97,-6.628 44.996,-18.639c12.026,-12.026 18.639,-28.011 18.639,-44.996c-0.016,-17 -6.628,-32.97 -18.639,-44.996c-12.041,-12.011 -28.011,-18.638 -44.996,-18.638Z" style="fill:#4c4372;fill-rule:nonzero;"/></g><g><path d="M2137.83,752.119c-11.647,-0 -23.279,-4.444 -32.167,-13.331c-17.774,-17.759 -17.774,-46.573 0,-64.347l95.999,-95.998c17.774,-17.759 46.558,-17.759 64.332,0.015c17.774,17.759 17.774,46.574 0,64.348l-95.998,95.997c-8.887,8.872 -20.534,13.316 -32.166,13.316Z" style="fill:#4c4372;fill-rule:nonzero;"/></g><g><path d="M1382.71,1726.32c-12.072,0 -23.643,-4.792 -32.166,-13.33l-213.077,-213.091c-17.774,-17.759 -17.774,-46.573 0,-64.332l302.554,-302.567c17.774,-17.774 46.558,-17.759 64.333,-0l213.091,213.075c8.539,8.538 13.331,20.11 13.331,32.181c-0,12.057 -4.792,23.643 -13.331,32.166l-302.569,302.568c-8.538,8.538 -20.094,13.33 -32.166,13.33Zm-148.744,-258.587l148.744,148.743l238.237,-238.22l-148.76,-148.743l-238.221,238.22Z" style="fill:#4c4372;fill-rule:nonzero;"/></g><g><path d="M1383.89,1424.92c-11.647,-0 -23.279,-4.444 -32.166,-13.331l-62.968,-62.967c-17.774,-17.759 -17.774,-46.573 0,-64.332c17.774,-17.774 46.559,-17.774 64.333,-0l62.967,62.967c17.774,17.759 17.774,46.573 0,64.332c-8.887,8.887 -20.534,13.331 -32.166,13.331Z" style="fill:#4c4372;fill-rule:nonzero;"/></g></g></svg>